#!OML:ASF F:\VICON\USERDATA\INSTALL\rory3\rory3.ASF
:FULLY-SPECIFIED
:DEGREES
64
root 0.7106075549374338 18.17570348224401 19.044746438353187 4.998471010717102 0.5356053640787812 -1.1576792642821112
lfemur 2.1214027533521573 2.4515331472129067 -24.114042496701963
ltibia 48.36623535176412
lfoot 1.964119686117301 -7.280661128844615
ltoes -12.788273978281508
rfemur -24.87084077838415 3.5363469827230345 26.879640741371354
rtibia 72.96170267937342
rfoot 15.449696008331394 -4.4345366862302145
rtoes -4.964636911002573
lowerback 15.81723455192668 0.039680971799956 -1.0981637935627147
upperback -0.3055494528795373 -0.16800433767686362 0.6184087726179242
thorax -8.872627197175731 0.42365960426104043 1.1451721727602364
lowerneck -18.496406665750133 -3.9912350578886078 -3.031723472787843
upperneck 7.69704328098633 -4.059161180433476 6.287715465234468
head 5.307583840006769 -2.096754374059163 1.8502690430267994
lclavicle -1.5429275885476945e-15 -3.3056561733961638e-15
lhumerus -40.484756461215085 -9.735446862646947 89.10358398800786
lradius 121.90712280234314
lwrist 31.976007896582427
lhand -24.06122605075799 3.909994832142875
lfingers 7.12502
lthumb 2.1832955298997674 33.746890761918166
rclavicle -1.5439971169665097e-15 -3.2959560994575062e-15
rhumerus -53.64884808537931 10.657385717962576 -95.18125996504745
rradius 109.12441328971315
rwrist -21.461598993426545
rhand -18.139117651760515 40.19462218402304
rfingers 7.12502
rthumb 8.09378390411017 10.292469377775246
65
root 0.6943184095267594 18.15069426936279 19.77902975983233 5.104801409101576 0.6260972755303418 -1.2470163699528238
lfemur 2.098429161690916 1.59613280433611 -23.774773622419378
ltibia 44.884855462301424
lfoot 2.150943689531798 -7.735363594368643
ltoes -12.47832785559122
rfemur -25.153876151201807 3.745452198540305 26.68851898260874
rtibia 55.38475541059479
rfoot 15.316911488604067 -4.310037550762071
rtoes -1.2964206068469872
lowerback 15.521043340661372 -0.09745357671751531 -1.2647056155465446
upperback -0.3979871621321525 -0.3850469435811379 0.7439929159001505
thorax -8.699430969627869 0.22257408372562448 1.6148220910616753
lowerneck -18.465570111644773 -3.955003235834761 -3.046577254158859
upperneck 8.021060217562779 -3.822280832037909 6.11792852511595
head 5.328809629544455 -2.0480802203864417 1.8530034590336388
lclavicle -1.5429275859194466e-15 -3.30565626706081e-15
lhumerus -40.84661084308402 -9.649461727233803 88.77152568974185
lradius 121.64341954167821
lwrist 31.984496426276046
lhand -24.069920127202643 3.9402035005104135
lfingers 7.12502
lthumb 2.1693902464484145 33.774695848158366
rclavicle -1.5439970872093783e-15 -3.2959560734454134e-15
rhumerus -52.526100410706064 11.205812523196958 -95.24963580146336
rradius 108.53517241613461
rwrist -22.300758055605968
rhand -18.08899416228359 40.23166035792664
rfingers 7.12502
rthumb 8.110654385241972 10.265096754069663
66
root 0.6761496985304939 18.11755305579862 20.380845587217436 5.2061257519850574 0.5953778827554568 -1.3425771603115553
lfemur 1.3344253601284244 0.4948858226354512 -23.234566131095296
ltibia 40.86879240307104
lfoot 1.6625037996760774 -8.228722753050365
ltoes -12.431636729032899
rfemur -24.444483238399474 3.912147854988092 26.94322652419162
rtibia 39.56187806077087
rfoot 14.963350105815618 -4.484662122138457
rtoes 3.795552500578381
lowerback 15.251073492706361 -0.20397942570448968 -1.3295915699782639
upperback -0.47073537878101307 -0.5496054370164007 0.9106175757709164
thorax -8.501932016391033 0.04858003836209246 2.0544941520016273
lowerneck -18.43898441130369 -3.945320329071482 -3.0621943208575684
upperneck 8.362282441995365 -3.5700994454447 5.944874001439555
head 5.353002818786109 -1.992851256768311 1.8517216556264529
lclavicle -1.5429272921074079e-15 -3.3056560566065173e-15
lhumerus -41.42961950114665 -9.428896034976168 88.80021684426083
lradius 121.17489958059322
lwrist 31.89398003685724
lhand -24.07428612571781 3.9813538894161065
lfingers 7.12502
lthumb 2.1647873298091866 33.81343877882262
rclavicle -1.5439970624229932e-15 -3.2959560559757412e-15
rhumerus -51.40792042888227 11.812856900147567 -95.7153439280719
rradius 107.77440153171905
rwrist -23.039967270125736
rhand -18.037405590369584 40.24837495482249
rfingers 7.12502
rthumb 8.12446215385963 10.238075500301042
67
root 0.6568940912752326 18.08080013138308 20.976171556872064 5.289373700370155 0.5101938722194332 -1.4198599473780684
lfemur 0.09928640302550207 -0.3769019092583604 -22.470499312564726
ltibia 37.859446190986986
lfoot 1.1055661773146475 -9.025470439864636
ltoes -12.373490023373506
rfemur -24.2406203954066 3.8866533626441124 27.15093674392827
rtibia 30.82095478586828
rfoot 15.627070402524843 -4.478859312316777
rtoes 8.397999698768405
lowerback 15.066370284763025 -0.2857103806164073 -1.2765665980357181
upperback -0.5227291952335396 -0.6598111514393987 1.1349967602520032
thorax -8.315243792559393 -0.09592164964032845 2.4396245273442134
lowerneck -18.413958993793234 -3.9542756239173413 -3.076938661229067
upperneck 8.622543806111787 -3.3283286761817035 5.793600245869893
head 5.376109758698596 -1.9223471477739047 1.8444162437230636
lclavicle -1.5429272232263621e-15 -3.3056559988448454e-15
lhumerus -42.319097330653236 -9.136987011545786 89.11450525763607
lradius 120.56222367680486
lwrist 31.734697352100433
lhand -24.088210700954253 4.015207852854992
lfingers 7.12502
lthumb 2.1582087261788727 33.84785049341163
rclavicle -1.5439970398963967e-15 -3.2959560379722574e-15
rhumerus -49.80885465101019 12.582392650023714 -96.01964348729783
rradius 106.73044919532869
rwrist -23.73366347316673
rhand -18.000728631299925 40.23506643312613
rfingers 7.12502
rthumb 8.137748322636558 10.201994024849226
68
root 0.63689303712604 18.041091843221334 21.564637701106566 5.343129731398187 0.3714585109720836 -1.5374431157652126
lfemur -2.0273327459112664 -0.5648290081027738 -21.472410813041325
ltibia 36.70303380354389
lfoot 2.6747896719569058 -9.202308882122319
ltoes -12.385425041575072
rfemur -23.714942841963282 3.8063883695322933 27.4987946338525
rtibia 31.617604729298165
rfoot 16.901596058045655 -4.447728478892785
rtoes 10.657175198757596
lowerback 14.999706858192415 -0.3423165360772106 -1.085016549653567
upperback -0.5722304896025789 -0.7175740974135736 1.4249982845454428
thorax -8.17288470100089 -0.21148334552038228 2.745155042459156
lowerneck -18.38865414366709 -3.9597304868520684 -3.088239278451166
upperneck 8.786276843943787 -3.1509438173804 5.719907814850197
head 5.400657878828277 -1.831834290915387 1.8335855674386639
lclavicle -1.5429273139810218e-15 -3.305656050593787e-15
lhumerus -43.667957598344216 -8.851830387082757 89.51395490647718
lradius 119.85768860213867
lwrist 31.550100348849174
lhand -24.09905609593525 4.054015305323919
lfingers 7.12502
lthumb 2.1613810234715882 33.89368034481398
rclavicle -1.5439970526299421e-15 -3.295956045231898e-15
rhumerus -48.63296108831886 13.002186938373745 -96.40070178648486
rradius 105.39814508899416
rwrist -24.289522629585132
rhand -18.001933947478626 40.170540962530836
rfingers 7.12502
rthumb 8.153462635164336 10.161873786127186
69
root 0.6169112866694828 18.00985201079186 22.1755264840354 5.354332023632854 0.17092126999056667 -1.713928876354156
lfemur -5.136830254476465 0.11750667818644656 -20.27897415987023
ltibia 37.62694303388301
lfoot 3.084561847105271 -10.008206187544738
ltoes -12.300352172952257
rfemur -22.923397700192858 3.966063424793543 27.856499228484147
rtibia 37.175785686260014
rfoot 17.035255526261608 -4.623732890315827
rtoes 12.267196305499272
lowerback 15.030941627483886 -0.37597364369346964 -0.766676607215345
upperback -0.6153828145062245 -0.6850284515810237 1.7838208128322037
thorax -8.09803006037175 -0.2994279635416819 2.94676234047281
lowerneck -18.356193315119828 -3.9383136898973286 -3.0890929137507657
upperneck 8.898639770590115 -3.08885206307411 5.687512551547096
head 5.418404097547322 -1.7473868602439495 1.819251000193586
lclavicle -1.5429274040239855e-15 -3.3056561477049753e-15
lhumerus -45.63421432675781 -8.744958670815148 89.78927347430624
lradius 119.1009715901815
lwrist 31.38543072670548
lhand -24.10221189622507 4.100372421355573
lfingers 7.12502
lthumb 2.1679159102603345 33.94176254940991
rclavicle -1.5439970883734311e-15 -3.2959560735202996e-15
rhumerus -47.59361707583432 13.487126873127664 -96.60749989402036
rradius 103.87575284424604
rwrist -24.698631759456564
rhand -18.03923099943917 40.07769841714221
rfingers 7.12502
rthumb 8.187873339664561 10.15218634995599
